<?xml version="1.0" encoding="UTF-8" standalone="no"?>

<svg
  xmlns:svg="http://www.w3.org/2000/svg"
  xmlns="http://www.w3.org/2000/svg"
  viewBox="0 0 180 180"
  stroke="#fff"
  stroke-width="8"
  fill="none"
>
  <ellipse
    stroke="#000"
    stroke-width="10"
    opacity="0.5"
    cx="90"
    cy="90"
    rx="85"
    ry="85"
  />
  <ellipse
    cx="90"
    cy="90"
    rx="85"
    ry="85"
  />
  <path
   style="stroke-width:4"

   d="m 40,64 25,0
      c 2.488024,0.01255 3.010984,-0.893383 4.869272,-2.776783
      L 90,41
      c 2.3196,-2.350944 5.55625,-1.322918 5.55625,1.322916 0,0 0.20747,90.253843 0.26458,93.662503 0.0571,3.40866 -3.70417,4.23333 -6.08542,1.5875
      l -18.5074,-19.70206
      c -2.381579,-2.53531 -2.39468,-3.05211 -6.098848,-2.78753
      l -25.135416,1e-5
      c -4.209204,0.13452 -7.912853,-1.91812 -7.929441,-6.61459
      L 32,71

      c -0.01589,-4.499641 3.300577,-7.165768 7.664857,-7.14375 z"
  />

  <g style="stroke-width:4"
    transform="translate(-29,-21)">
    <path  
       d="M 146,63
       C 187,79 189,140 146,158"/>
    <path
       d="m 135.20208,75.014584 c 38.62917,10.583333 38.1,61.118746 0.26458,72.231246"/>
    <path
       d="m 135.46667,89.566667 c 19.05,8.202083 19.31458,33.866663 0.26458,42.862503" />
  </g>
</svg>
