<?xml version="1.0" encoding="UTF-8" standalone="no"?>

<svg
  xmlns:svg="http://www.w3.org/2000/svg"
  xmlns="http://www.w3.org/2000/svg"
  viewBox="0 0 180 180"
  stroke="#fff"
  stroke-width="8"
  fill="none"
>
  <ellipse
    stroke="#000"
    stroke-width="10"
    opacity="0.5"
    cx="90"
    cy="90"
    rx="85"
    ry="85"
  />
  <ellipse
    cx="90"
    cy="90"
    rx="85"
    ry="85"
  />
  <g
     aria-label="C"
     transform="translate(-29.244934,-21.023109)
     matrix(4.0989163,0,0,3.8866324,-470.09545,-462.12725)"
     stroke="none"
     fill="#fff">
    <path
       d="m 153.78875,134.27144 h -1.32 l -0.84,1.68 c -2.36,-1.8 -4.8,-2.56 -8.24,-2.56 -3.2,0 -6.96,1.76 -9.4,4.4 -2.44,2.6 -3.76,6.12 -3.76,9.88 0,8 6.04,14 14.12,14 5.16,0 9.24,-2.28 12.2,-6.88 l -1.72,-0.96 c -1.16,1.72 -1.96,2.6 -3.28,3.56 -1.92,1.44 -4.52,2.36 -6.6,2.36 -2.48,0 -5.36,-1.32 -7.08,-3.24 -1.88,-2.04 -2.92,-5.28 -2.92,-8.88 0,-7.08 3.92,-12.32 9.2,-12.32 2.96,0 5.92,1.68 7.8,4.4 0.76,1.12 1.24,1.96 2.48,4.2 h 1.28 z"/>
  </g>
</svg>
