<?xml version="1.0" encoding="UTF-8" standalone="no"?>

<svg
  xmlns:svg="http://www.w3.org/2000/svg"
  xmlns="http://www.w3.org/2000/svg"
  viewBox="0 0 180 180"
  stroke="#fff"
  stroke-width="8"
  fill="none"
>
  <ellipse
    stroke="#000"
    stroke-width="10"
    opacity="0.5"
    cx="90"
    cy="90"
    rx="85"
    ry="85"
  />
  <ellipse
    cx="90"
    cy="90"
    rx="85"
    ry="85"
  />
  <path
    stroke="none"
    fill="#fff"
    d="
    M 66,35
    h 60 
    v 88

    q 0,4.74355 -3.18829,8.86499 -3.18829,4.35474 -8.47618,6.76539 -5.21013,2.3329 -10.18696,2.3329 -4.27697,0 -7.77631,-2.56619 -3.49934,-2.56618 -3.49934,-6.84315 0,-4.89907 3.49934,-8.94275 3.03276,-3.96592 8.55394,-7.15421 2.87723,-1.24421 5.28789,-1.78855 2.41065,-0.54434 4.58802,-0.54434 4.82131,0 8.47618,2.64394
    v -70
    h -55
    v 10
    h 25
    v 10
    h -25
    v 58

    q 0,4.74355 -3.188287,8.86499 -3.188287,4.35474 -8.476177,6.76539 -5.210128,2.3329 -10.186966,2.3329 -4.432496,0 -7.931835,-2.56619 -3.343814,-2.56618 -3.343814,-6.84315 0,-4.58802 3.343814,-8.94275 1.555261,-1.71079 3.810391,-3.49934 2.25513,-1.86632 4.976838,-3.65487 2.643946,-1.24421 5.132365,-1.78855 2.488419,-0.54434 4.743548,-0.54434 4.743549,0 8.398415,2.64394
    z

    m 76 88
    q 0,2.3329 -1.78855,4.04369 -1.71079,1.63302 -4.12144,1.63302 -2.41066,0 -4.12145,-1.63302 -1.63302,-1.71079 -1.63302,-4.04369 0,-2.56618 1.63302,-4.1992 1.71079,-1.71079 4.12145,-1.71079 2.41065,0 4.12144,1.71079 1.78855,1.63302 1.78855,4.1992
    z"
  />
  <path
    d="M 147,33 33,147"
    stroke="#000"
    style="stroke-width:10;opacity:0.5"
  />
  <path   
    d="M 150,30 30,150"
  />
</svg>
